<svg id="Layer_1" data-name="Layer 1" xmlns="http://www.w3.org/2000/svg" viewBox="0 0 630.04 119.6"><defs><style>.cls-1{fill:#1d1d1b;}.cls-2{fill:#bfd122;}.cls-3{fill:#5c9ed6;}.cls-4{fill:#b0c90f;}.cls-5{fill:#95c4eb;}</style></defs><title>rly-gd-logo</title><path class="cls-1" d="M269,80h9.62V41.21a2.6,2.6,0,0,0-2.86-2.86h-7.41V26h17.29c5.85,0,8.84,2.47,8.84,8.06V38a30.23,30.23,0,0,1-.26,4.16h.26c3-9.49,10.92-17,21.06-17a18.9,18.9,0,0,1,3,.26V41.6a29.34,29.34,0,0,0-4-.26c-13.39,0-19.37,11.7-19.37,24.18V80h9.49V92.3H269Z"/><path class="cls-1" d="M330.65,12.35H320.38V0H347V70.2c0,6,1.3,9.1,6.76,9.1,1.82,0,3.12-.13,3.12-.13V92.43a47.33,47.33,0,0,1-6,.39c-10.53,0-20.28-3.51-20.28-21.58Z"/><path class="cls-1" d="M378,106.08a12.33,12.33,0,0,0,11.7-7.67l1.82-4.16-22.75-55.9h-7.93V26h32.63V38.35h-7.8l12.09,33.54a29.62,29.62,0,0,1,1.43,6.89h.39a34.46,34.46,0,0,1,1.82-6.89l12-33.54h-7.67V26H437V38.35h-7.54L405,100.88c-5.07,13.13-14.95,18.72-26.26,18.72a30.33,30.33,0,0,1-16.12-4.55L368,103A17.13,17.13,0,0,0,378,106.08Z"/><path class="cls-2" d="M445.05,75.66h16.51V92.3H445.05Z"/><path class="cls-1" d="M505,106.08c10.14,0,18.72-4.42,18.72-16.64V85.28a31.92,31.92,0,0,1,.26-3.51h-.26c-3.9,5.85-9.62,9.23-18.46,9.23-19.11,0-29.77-15.34-29.77-33.54s10.27-33,29.38-33c7.93,0,16.9,3,20.54,10h.26a8.85,8.85,0,0,1-.26-2.21c0-3.51,2.34-6.24,7.54-6.24h16.51V38.35h-6.37c-1.69,0-2.86.91-2.86,2.6V88.27c0,22.75-17.68,31.33-35,31.33a53.84,53.84,0,0,1-23.66-5.72l5.07-12.22A42.8,42.8,0,0,0,505,106.08Zm19.11-48.49c0-15.08-7.54-19.11-16.38-19.11-10,0-15.6,7.28-15.6,18.46,0,11.57,6,20.15,16.64,20.15C516.55,77.09,524.09,72.54,524.09,57.59Z"/><path class="cls-1" d="M585.71,24.44c14.17,0,19.11,9.36,19.11,9.36h.26a39.2,39.2,0,0,1-.26-4.68V12.35H594.55V0H621.2V77.09A2.55,2.55,0,0,0,624.06,80h6V92.3h-15.6c-6,0-8.45-3.25-8.45-7V84.5a10.35,10.35,0,0,1,.39-3h-.26s-5.2,12.35-21.71,12.35c-17.68,0-29-14.17-29-34.71C555.42,38.09,567.77,24.44,585.71,24.44ZM588.44,80c8.71,0,16.77-6.24,16.77-20.41,0-10.79-5.33-20.93-16.25-20.93-9.36,0-16.9,7.41-16.9,20.54C572.06,71.76,578.82,80,588.44,80Z"/><path class="cls-3" d="M54.45,84.81a9.16,9.16,0,0,1,1.95,5.48A6.2,6.2,0,0,1,54.45,95a6.86,6.86,0,0,1-5,1.85,11.35,11.35,0,0,1-4.42-1.06q-4.42-3.18-9.9-7.25T24,80.22Q18.38,76,12.91,71.82T2.83,64.48A8.27,8.27,0,0,1,0,58.65a7.75,7.75,0,0,1,3.36-6.19l4-3.18q3.09-2.47,7.51-5.84t9.28-7.25q4.86-3.88,9.28-7.25T41,23c2.12-1.71,3.41-2.74,3.89-3.09A11.19,11.19,0,0,1,48.79,19a6.71,6.71,0,0,1,5,1.95,6.52,6.52,0,0,1,1.94,4.77,9.2,9.2,0,0,1-2.3,5.84q-3,2.48-7.6,6T36.24,45q-5,3.9-9.54,7.43t-7.61,6q3.54,2.66,8.22,6.1t9.46,7.07q4.78,3.63,9.46,7.07T54.45,84.81Z"/><path class="cls-3" d="M173.12,84.81q3.52-2.66,8.22-6.1t9.45-7.07q4.78-3.61,9.46-7.07t8.22-6.1q-3-2.47-7.6-6T191.32,45q-4.95-3.89-9.54-7.42t-7.6-6a9.14,9.14,0,0,1-2.3-5.84A6.48,6.48,0,0,1,173.82,21a6.71,6.71,0,0,1,5-1.95,11.24,11.24,0,0,1,3.89.89,44.7,44.7,0,0,1,4,3.09q3.09,2.57,7.51,5.92t9.29,7.25q4.86,3.9,9.28,7.25t7.51,5.84l4,3.18a7.75,7.75,0,0,1,3.36,6.19,8.31,8.31,0,0,1-2.83,5.83q-4.43,3.18-10,7.34t-11.23,8.4q-5.66,4.23-11.14,8.3t-9.89,7.25a10.53,10.53,0,0,1-4.42,1.06A6.84,6.84,0,0,1,173.12,95a6.2,6.2,0,0,1-2-4.69A9.16,9.16,0,0,1,173.12,84.81Z"/><path class="cls-4" d="M81.05,94.65c-.18-10.23,1.57-18.44,4.8-22.53a10.71,10.71,0,0,1,7.09-3.94L94.15,68A10.73,10.73,0,0,1,99,69.26a2.54,2.54,0,0,0,.38.16,10.27,10.27,0,0,1,1.31.82q.66.58,1.2,1.17a1.66,1.66,0,0,0,.23.31,10.55,10.55,0,0,1,2.27,4.15,2.21,2.21,0,0,0,0,.25c.1.48.18.91.24,1.38a10.71,10.71,0,0,1-2.21,7.77c-1.84,2.34-7,6.73-20.61,9.82l-.45.1-.35.08Z"/><path class="cls-1" d="M94.27,70.54a8.35,8.35,0,0,1,3.58.93c.17.09.33.16.5.23s.55.33.78.49.56.52.8.78a4.23,4.23,0,0,0,.33.41,8,8,0,0,1,1.69,3l.06.27c.08.4.14.74.19,1.12a8.15,8.15,0,0,1-1.68,5.94c-3.41,4.32-11.84,7.06-17,8.39.13-8.38,1.68-15.17,4.25-18.43a8.15,8.15,0,0,1,5.43-3l1-.13m-.26-5-1.36.16a13.17,13.17,0,0,0-8.76,4.87C78,78,78.54,93.24,78.56,95l.11,3.34L82,97.64c1.68-.41,16.63-3.39,22.5-10.82a13.12,13.12,0,0,0,2.72-9.64c-.07-.55-.16-1.06-.28-1.6l0,0A13,13,0,0,0,104,70.06l0,0a16.81,16.81,0,0,0-1.74-1.74A13.86,13.86,0,0,0,100.19,67l0,0A13.29,13.29,0,0,0,94,65.54Z"/><path class="cls-1" d="M149,22a10.78,10.78,0,0,0-11.62-9.88l-.39.05-.4,0a10.7,10.7,0,0,0-7.15,4.6L94.26,65.51l-.25,0a13.29,13.29,0,0,1,6.16,1.5l0,0,.06-.08,6.56-9.16a5.1,5.1,0,0,1,4.68,3.7l-7.38,8.46L104,70l0,0a13,13,0,0,1,2.91,5.49L146.2,30.1A10.92,10.92,0,0,0,149,22Zm-7.1,4.31L115.46,56.79a10.58,10.58,0,0,0-5-3.95L134.06,20a5,5,0,1,1,7.84,6.29Z"/><path class="cls-5" d="M143.17,22.36a5.08,5.08,0,0,1-1.27,3.91L115.46,56.79a10.58,10.58,0,0,0-5-3.95L134.06,20a5,5,0,0,1,9.11,2.38Z"/></svg>